<svg xmlns="http://www.w3.org/2000/svg" viewBox="0 0 256 256" role="img" aria-label="Presupuesto Mensual">
  <rect width="256" height="256" rx="56" fill="#2563eb"/>
  <rect x="48" y="54" width="160" height="148" rx="22" fill="#ffffff"/>
  <rect x="64" y="78" width="128" height="16" rx="8" fill="#dbeafe"/>
  <rect x="64" y="112" width="62" height="14" rx="7" fill="#22c55e"/>
  <rect x="64" y="142" width="96" height="14" rx="7" fill="#0891b2"/>
  <rect x="64" y="172" width="74" height="14" rx="7" fill="#f59e0b"/>
  <circle cx="178" cy="166" r="34" fill="#7c3aed"/>
  <path d="M178 145v42" stroke="#ffffff" stroke-width="10" stroke-linecap="round"/>
  <path d="M164 156c0-8 7-13 16-13 8 0 14 3 18 8" fill="none" stroke="#ffffff" stroke-width="8" stroke-linecap="round"/>
  <path d="M192 176c0 8-7 13-16 13-8 0-14-3-18-8" fill="none" stroke="#ffffff" stroke-width="8" stroke-linecap="round"/>
</svg>
